<svg version="1.1" id="Layer_1" xmlns="http://www.w3.org/2000/svg" xmlns:xlink="http://www.w3.org/1999/xlink" x="0px" y="0px"
	 width="100%" viewBox="0 0 1032 629" enable-background="new 0 0 1032 629" xml:space="preserve">
<path fill="#FFFFFF" opacity="1.000000" stroke="none" 
	d="
M754.000000,630.000000 
	C504.166687,630.000000 254.833389,629.990112 5.500128,630.093323 
	C1.751092,630.094849 0.904516,629.249451 0.906429,625.500000 
	C1.011864,418.833435 1.011859,212.166794 0.906473,5.500212 
	C0.904561,1.751334 1.750330,0.905785 5.499862,0.906888 
	C346.499817,1.007201 687.499756,1.007193 1028.499756,0.906966 
	C1032.248291,0.905864 1033.095581,1.749828 1033.093628,5.499759 
	C1032.988159,212.166351 1032.988159,418.833008 1033.093506,625.499573 
	C1033.095337,629.247925 1032.250977,630.100037 1028.500244,630.095032 
	C937.166992,629.973328 845.833435,630.000000 754.000000,630.000000 
z"/>
<path fill="#BFA06F" opacity="1.000000" stroke="none" 
	d="
M239.702499,436.291504 
	C219.966965,441.555908 207.127014,453.176544 202.529449,473.092438 
	C201.843399,476.064270 201.855286,479.054413 201.961746,482.038879 
	C202.137695,486.970642 204.924545,489.935730 209.133347,489.955200 
	C213.796219,489.976776 216.705139,487.184387 217.131195,482.277710 
	C218.972382,461.073578 236.419678,447.907928 255.950851,452.984528 
	C268.674683,456.291748 278.329987,468.575897 278.964478,482.452332 
	C279.115265,485.751038 279.530792,488.871033 282.522736,490.782715 
	C285.057617,492.402344 287.847382,492.509796 290.627228,491.195343 
	C293.405701,489.881500 294.374481,487.546570 294.266357,484.656097 
	C294.142059,481.334106 294.419189,477.944916 293.349365,474.740326 
	C292.217957,471.351227 293.356934,469.300995 296.635773,468.233948 
	C297.268646,468.027985 297.902008,467.822296 298.528320,467.597504 
	C308.973083,463.849457 309.155396,463.749084 314.418213,473.385986 
	C322.467072,488.124451 333.269958,499.433899 349.984161,504.166748 
	C374.625854,511.144318 399.232910,501.664886 412.670624,479.806580 
	C420.614410,466.884918 425.386932,452.773163 428.437317,437.548615 
	C430.809174,440.210175 431.562469,443.411957 432.851044,446.265472 
	C438.770325,459.373535 446.099335,471.534607 454.977325,482.921326 
	C478.659851,513.296082 526.616638,509.971558 545.454834,483.092987 
	C546.789612,481.188538 548.092957,480.533203 550.454895,481.609406 
	C568.056458,489.629486 586.944153,491.955475 605.904053,492.657349 
	C646.148315,494.147247 685.627930,489.051819 723.809143,475.880127 
	C739.549988,470.449921 753.877258,462.283936 765.066040,449.598267 
	C776.643005,436.472473 779.472046,421.145111 775.535889,404.341125 
	C775.351196,403.552826 775.146423,402.769257 774.883179,401.710663 
	C776.666626,401.654572 777.308899,402.903748 778.125000,403.714752 
	C786.636414,412.172882 795.056396,420.724060 803.639893,429.107941 
	C805.836060,431.253021 806.403809,432.568420 803.765442,434.974213 
	C774.591431,461.576385 746.502075,489.470367 716.187683,514.693359 
	C679.114258,545.540283 637.211304,550.630066 592.887390,530.501587 
	C589.719299,529.062866 587.430359,528.730774 584.212769,530.682617 
	C571.304138,538.513184 557.332764,542.268677 542.032898,542.248718 
	C411.372986,542.078247 280.712036,541.906006 150.053070,542.296448 
	C109.483131,542.417725 71.006927,511.813293 66.146912,466.716797 
	C61.667645,425.153442 87.944183,387.442932 128.541397,376.871490 
	C131.014786,376.227448 132.799606,375.722382 133.084702,372.226685 
	C135.314972,344.879913 146.940170,322.026398 167.649673,304.151123 
	C191.535629,283.534088 219.412003,276.301758 250.456253,281.471924 
	C253.147415,281.920105 254.425003,280.909210 256.017059,279.382965 
	C266.708221,269.133728 279.499664,265.386780 294.091492,267.024963 
	C298.314972,267.499115 300.093872,268.953766 300.196014,273.777588 
	C301.085297,315.778961 297.994385,357.736206 298.992584,399.731995 
	C299.337219,414.231354 300.687286,428.630768 303.601074,442.834808 
	C304.270477,446.098022 303.597687,447.436310 300.417999,447.968872 
	C295.950500,448.717133 291.771088,450.365967 287.827972,452.595886 
	C286.480225,453.358093 285.521484,453.862274 284.089447,452.200775 
	C272.453308,438.700226 257.490021,434.086914 239.702499,436.291504 
z"/>
<path fill="#EAA23A" opacity="1.000000" stroke="none" 
	d="
M370.025787,150.974915 
	C394.338104,140.984360 418.963470,133.102676 444.837799,131.054764 
	C482.378967,128.083405 513.530945,146.514160 528.342407,181.156754 
	C542.838501,215.061554 543.465027,249.485153 525.845886,282.825439 
	C517.605103,298.419189 506.215546,311.759796 492.444916,322.856750 
	C488.885376,325.725159 489.103088,327.810791 491.372284,331.366882 
	C508.084198,357.556549 520.055847,385.768829 526.402649,416.232819 
	C529.102234,429.190674 530.202576,442.141052 525.842834,455.164459 
	C518.421753,477.332672 492.608643,478.476440 479.973480,464.496185 
	C470.559998,454.080597 464.085785,441.892944 458.991913,429.007904 
	C451.472961,409.988586 444.634064,390.700684 437.143127,371.669861 
	C433.541992,362.521149 434.786682,364.035400 426.232727,367.102905 
	C419.820099,369.402435 413.653717,372.381195 407.280487,374.801483 
	C404.721741,375.773193 403.848785,377.132965 403.680908,379.874451 
	C402.511810,398.967560 401.707214,418.114380 397.066528,436.808838 
	C394.486176,447.203491 390.814911,457.080994 384.745026,466.057648 
	C375.767059,479.335144 356.176361,477.054779 347.643890,467.448212 
	C339.020874,457.739777 335.191986,445.908813 333.128418,433.478210 
	C327.551849,399.885376 329.614594,366.070587 330.616608,332.295288 
	C331.338165,307.973297 331.264557,283.652313 330.583557,259.329376 
	C329.903137,235.028290 328.818298,210.721542 331.993073,186.484314 
	C333.423798,175.561752 339.267578,167.769882 348.420502,162.156250 
	C355.240540,157.973419 362.367126,154.369934 370.025787,150.974915 
z"/>
<path fill="#EAA23A" opacity="1.000000" stroke="none" 
	d="
M595.728455,344.722473 
	C612.219055,322.731049 629.856567,302.101288 647.260986,280.194061 
	C643.447388,279.645966 640.736267,280.880951 638.005188,281.499268 
	C619.525757,285.682831 601.260620,290.974945 582.206787,292.141846 
	C569.219238,292.937286 557.958191,288.579681 548.219543,280.263855 
	C538.587708,272.039307 538.281860,261.573456 547.243408,252.502716 
	C555.777100,243.865143 566.666687,239.145035 577.745422,234.955841 
	C602.824158,225.472824 628.864441,219.850235 655.569092,218.500671 
	C677.274475,217.403748 698.424805,220.763306 717.323120,232.785202 
	C732.819824,242.643112 734.927856,258.239258 726.204468,273.759857 
	C714.530701,294.529663 700.533081,313.856171 686.998840,333.445801 
	C671.001099,356.601135 654.846191,379.647888 638.802002,402.771301 
	C637.501465,404.645782 635.808411,406.338531 635.187988,409.223511 
	C644.014893,407.263306 652.538086,405.264038 661.107727,403.488770 
	C681.585510,399.246490 702.214355,397.229401 723.105713,399.738190 
	C727.269775,400.238281 731.206360,401.603973 735.061890,403.174835 
	C747.796509,408.363251 750.462585,420.968048 740.650452,430.716522 
	C732.969238,438.347931 723.542114,443.329773 713.431396,447.010895 
	C693.750854,454.176178 673.204346,457.283661 652.560425,459.962494 
	C633.152588,462.480957 613.705078,462.915283 594.238953,461.025146 
	C581.600464,459.797974 569.214294,457.461395 557.960327,451.020416 
	C548.234802,445.454193 544.481934,437.293091 546.673157,426.252777 
	C549.159851,413.724274 555.838501,403.101044 562.228455,392.410553 
	C572.153198,375.806366 583.727173,360.324615 595.728455,344.722473 
z"/>
<path fill="#BFA06F" opacity="1.000000" stroke="none" 
	d="
M788.316895,239.316864 
	C829.680847,197.945663 870.757935,156.787369 911.980225,115.775116 
	C915.210754,112.560989 915.631104,110.552872 911.977417,107.609573 
	C909.140564,105.324219 906.642944,102.578186 904.195801,99.856026 
	C896.597595,91.403915 896.567017,78.074921 904.023254,70.292427 
	C911.744812,62.232971 925.313171,61.331779 934.053223,68.556076 
	C937.635254,71.516861 940.804993,74.983521 944.103821,78.278610 
	C963.554260,97.707245 982.966675,117.174110 1002.443481,136.576309 
	C1006.586182,140.703186 1009.599976,145.291824 1010.005127,151.303879 
	C1010.585693,159.918594 1006.772522,166.280533 999.361877,170.079117 
	C991.373413,174.173950 983.171082,173.839752 975.886841,168.231903 
	C972.084290,165.304459 968.718201,161.741318 965.482605,158.168701 
	C963.043518,155.475525 961.485046,155.901321 959.113770,158.303421 
	C944.950806,172.650482 930.641541,186.853012 916.383118,201.105820 
	C860.763184,256.703766 805.139221,312.297668 749.545288,367.921631 
	C747.739502,369.728363 743.868286,371.433167 748.963135,374.910217 
	C733.322083,368.978699 717.698730,367.339478 701.799133,368.006378 
	C701.330200,365.971832 702.727783,365.019989 703.522156,363.854218 
	C719.459290,340.464722 735.678345,317.262299 750.601135,293.198700 
	C755.093201,285.955109 758.948242,278.407440 760.141907,269.800659 
	C760.484009,267.333649 761.987488,265.630249 763.676941,263.952972 
	C771.835327,255.852844 779.941895,247.700592 788.316895,239.316864 
z"/>
<path fill="#C0A271" opacity="1.000000" stroke="none" 
	d="
M550.723022,353.757996 
	C548.660400,356.809052 546.812561,359.571655 544.960571,362.331482 
	C543.567810,364.406982 542.548584,364.216187 541.667969,361.890503 
	C538.073364,352.397003 533.400269,343.402313 528.793518,334.381287 
	C528.036255,332.898468 527.803101,331.775055 529.067627,330.367859 
	C531.951050,327.159088 534.739319,323.854675 537.396851,320.456635 
	C539.080322,318.304077 540.063171,318.878906 541.529053,320.726898 
	C546.922180,327.525787 551.415710,334.880493 555.588623,342.463623 
	C556.600098,344.301727 556.699524,345.720459 555.297180,347.400513 
	C553.705200,349.307739 552.378235,351.436127 550.723022,353.757996 
z"/>
<path fill="#FEFEFD" opacity="1.000000" stroke="none" 
	d="
M200.749786,370.255615 
	C198.948242,374.844391 195.688736,375.117493 191.981750,373.996826 
	C187.857758,372.750031 186.218918,369.511139 186.282883,365.587158 
	C186.370605,360.205566 187.730652,355.084015 190.694717,350.462646 
	C200.945358,334.480499 220.856323,330.613800 236.302719,341.986328 
	C239.741257,344.517944 242.500671,345.033630 246.642761,343.939178 
	C258.853210,340.712799 269.293732,344.450531 277.759796,353.650055 
	C280.910156,357.073334 280.641327,361.486969 277.303223,364.873627 
	C274.108154,368.115173 270.605682,368.223541 267.064972,365.376587 
	C262.172333,361.442657 257.220795,358.041199 250.321915,359.830505 
	C247.203873,360.639191 245.715317,361.498108 246.744827,365.170380 
	C247.647736,368.391113 247.459457,371.855743 244.201843,374.172607 
	C239.082916,377.813263 232.983994,375.210968 231.907974,368.845642 
	C231.211441,364.725128 230.573685,360.657898 227.586548,357.377014 
	C223.166840,352.522705 217.035431,350.891083 210.799438,353.076538 
	C205.325500,354.994965 201.244659,360.695618 200.936020,366.872620 
	C200.886230,367.868958 200.883392,368.867645 200.749786,370.255615 
z"/>
<path fill="#FFFEFE" opacity="1.000000" stroke="none" 
	d="
M443.781128,269.784729 
	C432.932404,280.699341 419.680115,286.681671 406.132507,291.606842 
	C404.904602,291.148285 405.075867,290.382263 405.079712,289.795990 
	C405.212860,269.472107 404.938446,249.154160 403.917664,228.855225 
	C403.760712,225.733200 404.712097,224.106506 407.588318,222.793533 
	C417.828186,218.119125 428.224762,214.449371 439.734009,214.898483 
	C451.238220,215.347382 458.056488,222.051239 459.034973,233.573242 
	C460.281891,248.255936 454.239410,259.720825 443.781128,269.784729 
z"/>
</svg>